<svg width="200" height="200" xmlns="http://www.w3.org/2000/svg">
 <g>
  <title>Layer 1</title>
  <g id="svg_1">
   <g id="svg_2" transform="translate(0 300) scale(0.1 -0.1)" fill="#000000">
    <path id="svg_3" d="m195.01533,2923.30473c-19,-26 -15,-38 34,-109c44,-64 61,-114 35,-104c-9,3 -16,10 -16,14c0,4 -9,10 -20,13c-30,8 -62,-38 -55,-77c9,-45 88,-114 186,-163c50,-24 103,-61 132,-88c49,-49 57,-65 33,-65c-28,0 -66,20 -66,35c0,24 -48,30 -70,10c-35,-31 -23,-77 29,-114c21,-15 51,-23 102,-26c39,-3 76,-8 81,-11c16,-10 8,-24 -15,-24c-13,0 -34,-9 -47,-20c-28,-25 -29,-25 -54,-1c-39,36 -127,32 -166,-8c-26,-26 -28,-32 -18,-58c9,-25 8,-34 -8,-56c-15,-21 -27,-26 -60,-27c-50,0 -54,8 -53,125c0,74 -1,81 -26,102c-33,29 -37,29 -71,-1l-28,-23l0,-141c-1,-175 1,-179 116,-186c53,-3 84,0 103,10c23,12 31,12 56,-2c25,-13 42,-13 107,-4c93,13 100,13 135,4c23,-5 34,-1 56,20l28,26l11,-25c19,-41 14,-69 -20,-116c-17,-24 -34,-46 -38,-49c-4,-3 -15,-22 -24,-43c-15,-36 -36,-43 -36,-11c0,33 -46,94 -71,94c-21,0 -27,-40 -18,-107c3,-24 2,-43 -2,-43c-4,0 -20,16 -35,35c-32,43 -48,44 -64,5c-9,-22 -9,-37 -1,-61c6,-18 11,-34 11,-38c0,-3 -38,34 -85,82c-47,48 -89,87 -95,87c-14,0 -30,-35 -30,-65c0,-32 23,-84 52,-115c18,-19 19,-24 7,-47c-12,-23 -12,-27 5,-37c56,-33 97,-69 111,-96c19,-36 13,-50 -20,-50c-13,0 -27,-4 -30,-10c-4,-6 5,-10 20,-10c35,0 79,-24 129,-70c23,-22 62,-50 87,-64c35,-21 39,-26 21,-26c-34,0 -81,27 -135,77c-43,40 -113,80 -123,70c-3,-2 33,-36 78,-76c83,-72 139,-98 182,-87c13,3 49,-9 97,-34c72,-37 80,-39 165,-38c49,0 101,-5 116,-10c26,-11 26,-10 42,51c8,34 25,105 36,158c15,68 31,110 55,147c50,77 50,76 34,67c-53,-31 -75,-55 -105,-119c-32,-65 -34,-78 -35,-176c-1,-86 -3,-97 -10,-60c-4,25 -8,77 -8,115c-1,60 4,80 32,135c21,43 43,71 65,85c83,50 94,66 101,144c5,55 12,77 26,87c26,19 81,18 89,-2c18,-48 -7,-100 -98,-204c-82,-93 -100,-130 -125,-250c-10,-52 -28,-116 -40,-142c-18,-43 -19,-48 -4,-57c13,-7 23,0 46,35c16,25 63,75 105,112c126,111 163,152 188,206c40,88 93,126 189,135c60,6 60,6 86,55c40,74 63,79 115,25c15,-16 36,-29 45,-29c25,0 78,47 93,84c16,39 42,66 63,66c13,0 13,-2 2,-16c-8,-9 -27,-44 -44,-77c-24,-49 -39,-67 -74,-86c-41,-23 -45,-23 -71,-7c-41,24 -51,21 -97,-28c-32,-34 -50,-45 -84,-50c-24,-4 -64,-18 -89,-32c-25,-14 -36,-22 -25,-19c94,30 100,30 149,1c44,-26 85,-29 71,-6c-3,5 -1,10 4,10c16,0 13,-46 -4,-60c-12,-10 -24,-8 -64,9c-48,20 -52,20 -98,5c-72,-24 -111,-50 -193,-129c-41,-40 -109,-93 -150,-118c-92,-57 -137,-93 -128,-102c4,-4 28,5 53,20c26,14 53,24 60,21c17,-6 69,28 162,110c116,101 201,135 249,99c17,-13 15,-14 -32,-15c-55,0 -102,-24 -186,-97c-25,-22 -75,-58 -110,-79c-43,-27 -57,-40 -45,-42c24,-5 140,60 196,110c55,48 89,67 150,82c35,8 47,16 49,33c4,25 -31,53 -68,54c-24,0 -24,1 7,16c29,15 37,15 75,2c49,-16 65,-14 91,9c13,12 17,27 15,49c-4,36 5,40 44,22c50,-22 71,-1 142,147c37,75 66,143 64,152c-2,8 -11,20 -20,26c-25,15 -45,1 -92,-67c-42,-61 -60,-68 -92,-38c-37,34 -56,40 -94,27c-24,-7 -41,-22 -55,-48c-22,-42 -32,-48 -93,-55l-43,-4l14,28c21,39 43,56 111,84c71,29 120,82 141,153c8,27 15,56 15,64c0,19 39,82 51,82c5,0 12,-8 16,-17c20,-57 77,-79 112,-44c16,16 18,26 10,63c-5,23 -13,52 -18,63c-5,11 -20,53 -32,94c-29,91 -51,121 -89,121c-35,0 -53,-23 -81,-107c-18,-56 -38,-88 -40,-66c-9,112 -13,140 -21,150c-13,16 -3,30 35,50c45,23 71,53 101,119c47,102 23,182 -51,175c-7,0 -27,-20 -44,-43c-51,-71 -150,-169 -185,-184c-18,-8 -70,-50 -114,-95c-45,-44 -84,-79 -86,-76c-6,6 43,99 59,112c28,22 166,202 187,245c16,30 24,66 26,105c1,37 11,82 25,114l23,54l-23,18c-27,22 -44,24 -74,8c-41,-21 -67,-52 -78,-92c-6,-22 -29,-60 -53,-86c-61,-65 -69,-84 -56,-129c15,-55 13,-67 -17,-102c-31,-38 -38,-31 -47,53c-4,45 -13,68 -41,104c-19,25 -35,53 -35,62c0,9 16,41 35,71c62,95 36,139 -59,100c-66,-26 -126,-89 -144,-148c-14,-46 -16,-162 -3,-212c14,-55 34,-206 30,-219c-3,-9 -12,-7 -29,7c-43,33 -59,34 -86,7c-19,-19 -25,-34 -22,-56c5,-47 -15,-37 -35,18c-23,61 -17,110 23,194c37,78 38,108 4,148c-30,36 -63,40 -89,11c-14,-16 -16,-26 -8,-57c7,-29 5,-46 -8,-73l-17,-34l-21,34c-11,19 -22,42 -22,50c-1,8 -3,33 -5,55c-2,23 5,67 17,103c29,87 24,199 -9,235c-34,37 -88,40 -113,8c-14,-17 -18,-33 -14,-53c5,-20 0,-36 -19,-61c-32,-42 -32,-62 -1,-133c25,-57 31,-91 17,-109c-37,-53 -158,115 -163,225c-4,103 -42,135 -181,155c-40,5 -48,3 -61,-16zm38,-9c3,-5 24,-10 47,-10c53,0 104,-25 116,-58c6,-15 12,-52 15,-83c7,-111 103,-249 172,-249c70,0 73,58 11,202l-16,37l36,36c28,28 34,41 29,58c-4,12 -7,31 -8,42c-3,31 37,31 68,1c22,-22 25,-34 25,-94c0,-49 -6,-84 -21,-117c-33,-74 -23,-156 31,-270l43,-90l18,73c10,40 25,83 34,95c17,24 20,67 5,67c-5,0 -10,-5 -10,-11c0,-5 -4,-7 -10,-4c-16,10 -11,34 10,45c15,8 24,6 40,-10c28,-28 25,-67 -10,-132c-17,-30 -33,-75 -36,-99c-6,-48 17,-158 42,-193c9,-14 14,-48 14,-108c0,-87 0,-88 -25,-88c-25,0 -25,1 -25,83c0,85 -8,107 -41,107c-33,0 -42,-28 -48,-158l-6,-127l-52,-75c-51,-73 -53,-79 -69,-189c-9,-63 -14,-132 -11,-152c6,-45 45,-134 86,-195c37,-54 24,-59 -17,-6c-92,116 -144,243 -171,413c-10,68 -22,132 -26,142c-4,9 -3,17 3,17c17,0 41,-79 62,-208c25,-155 39,-185 40,-84c0,118 24,202 78,274c34,46 48,73 52,110c5,36 3,48 -6,48c-10,0 -14,25 -16,93c-3,86 -4,92 -25,95c-12,2 -31,-6 -42,-17c-17,-17 -19,-29 -14,-95l5,-76l-29,0l-28,0l1,112c2,107 3,113 23,116c16,3 21,-2 21,-19l0,-22l23,21c13,12 33,22 45,22c26,0 27,3 6,36c-25,37 -67,55 -147,61c-76,6 -109,20 -127,54c-9,15 -8,24 1,35c17,20 38,18 32,-4c-7,-27 16,-40 98,-56c41,-8 83,-18 93,-22c18,-7 17,-4 -4,27c-55,76 -170,175 -253,217c-134,67 -196,139 -155,180c15,15 32,16 23,2c-12,-19 6,-48 34,-58c79,-28 64,84 -25,195c-33,40 -44,73 -25,73c6,0 13,-4 16,-10zm995,-84c0,-8 -11,-27 -24,-43c-42,-51 -59,-93 -53,-137c3,-22 14,-46 24,-53c52,-38 53,-40 53,-121c0,-51 5,-85 14,-97c14,-19 17,-17 66,33l53,52l-6,52c-3,29 -8,61 -12,70c-5,12 7,30 42,62c37,35 53,59 67,101c18,57 57,95 99,95c23,0 22,-15 -5,-59c-17,-26 -23,-53 -24,-102c-1,-43 -9,-79 -22,-105c-21,-41 -166,-229 -195,-253c-9,-7 -33,-46 -52,-87c-28,-58 -34,-78 -25,-93c5,-11 10,-58 10,-105c0,-85 0,-86 -25,-86c-25,0 -25,1 -25,83c0,83 -9,107 -39,107c-8,0 -23,-7 -33,-17c-14,-13 -18,-31 -18,-95c0,-77 0,-78 -25,-78l-25,0l0,115c0,98 2,114 15,109c20,-8 19,8 -6,181c-33,225 -35,304 -11,352c24,46 85,103 110,103c10,0 27,7 38,15c24,18 34,19 34,1zm520,-265c18,-34 11,-82 -19,-135c-50,-86 -83,-107 -198,-121c-49,-6 -57,-11 -104,-66c-50,-58 -50,-59 -24,-59c40,0 85,-50 85,-94l0,-36l-75,0c-79,0 -89,-7 -58,-42c18,-20 87,-25 98,-8c4,6 11,8 16,5c13,-9 11,-45 -3,-45c-7,0 -27,-15 -46,-32c-33,-33 -34,-33 -139,-35c-93,-1 -111,-5 -161,-30c-33,-16 -89,-60 -134,-103c-42,-41 -92,-88 -113,-104c-68,-54 -93,-150 -65,-246c6,-19 22,-87 35,-150c14,-63 28,-124 32,-135c5,-18 4,-19 -12,-5c-41,34 -92,192 -101,316c-7,90 4,139 43,192c28,38 25,39 -27,12c-92,-47 -109,-180 -45,-339c51,-125 74,-191 66,-191c-13,0 -99,181 -116,245c-20,78 -20,185 1,233c9,20 16,47 16,58c-2,37 73,140 140,191c34,26 78,63 98,80c30,27 32,33 15,33c-19,0 -20,6 -19,112c2,111 2,112 25,112c23,0 24,-2 24,-89c0,-50 4,-93 8,-96c19,-14 -38,-92 -119,-163c-47,-41 -103,-97 -125,-124c-41,-52 -52,-76 -21,-49c9,8 42,26 72,40c30,14 92,56 137,95c46,39 91,77 101,84c10,7 33,33 52,58c27,37 32,40 26,18c-3,-14 -9,-33 -12,-42c-6,-14 -2,-14 37,0c25,9 88,17 143,20c55,2 104,8 110,14c7,7 3,10 -13,10c-89,0 -124,138 -52,202c33,29 30,38 -3,13c-11,-8 -24,-15 -30,-15c-18,0 147,160 199,192c51,32 195,173 195,191c0,13 30,47 41,47c5,0 13,-9 19,-19zm-765,-331c0,-18 -6,-26 -23,-28c-24,-4 -38,18 -28,44c3,9 15,14 28,12c17,-2 23,-10 23,-28zm539,4c-4,-15 -8,-36 -9,-48c-1,-11 -3,-23 -4,-25c-2,-8 -51,42 -51,52c0,18 32,47 52,47c15,0 17,-5 12,-26zm-1382,-109l-4,-125l71,0c69,0 71,-1 71,-25c0,-25 0,-25 -95,-25l-95,0l0,150l0,150l28,0l27,0l-3,-125zm1468,-25l0,-150l-27,0l-28,0l0,150l0,150l28,0l27,0l0,-150zm225,13c26,-76 49,-144 52,-150c3,-9 -5,-13 -25,-13c-26,0 -30,4 -38,43c-9,41 -10,42 -54,45l-46,3l-12,-46c-10,-39 -16,-45 -38,-45c-14,0 -24,4 -22,8c2,5 25,72 52,150c65,186 69,186 131,5zm-1367,47c18,-17 22,-32 22,-84c0,-35 3,-78 6,-95c6,-26 4,-31 -14,-31c-11,0 -23,8 -26,17c-5,12 -9,14 -14,6c-11,-17 -59,-33 -79,-26c-48,17 -66,60 -43,103c11,21 60,40 101,40c32,0 35,7 16,34c-14,19 -48,19 -88,2c-11,-5 -18,-1 -22,13c-10,40 103,56 141,21zm375,-242l28,-14l-62,-49c-56,-44 -62,-46 -56,-24c3,13 9,42 12,64c11,67 13,70 33,53c9,-9 30,-22 45,-30zm763,6l37,7l-19,-32c-11,-17 -31,-41 -46,-52c-23,-17 -32,-18 -70,-9c-60,15 -113,0 -160,-45c-31,-30 -38,-45 -44,-92c-4,-32 -15,-67 -27,-81l-20,-25l8,25c18,61 17,95 -5,123c-23,29 -51,34 -94,17c-47,-18 -66,-46 -66,-100c0,-66 -13,-89 -69,-127c-26,-17 -62,-52 -79,-78l-32,-48l-18,44c-33,76 -44,119 -38,143c3,13 31,41 63,63c32,23 71,59 88,80c16,22 44,50 63,62c87,57 97,60 205,62l104,1l64,47l64,48l27,-20c20,-15 35,-18 64,-13zm-576,-5c0,-13 -29,-43 -36,-36c-7,6 18,47 28,47c5,0 8,-5 8,-11zm672,-2c-6,-7 -20,-38 -32,-69c-19,-53 -66,-108 -91,-108c-6,0 -34,-11 -64,-25c-45,-22 -62,-38 -100,-95c-25,-39 -48,-70 -50,-70c-3,0 13,36 35,81c31,61 50,85 78,102c33,20 35,22 15,25c-47,7 -76,-19 -104,-93c-30,-81 -116,-252 -130,-260c-5,-4 -34,-40 -64,-81c-59,-80 -85,-97 -54,-36c10,20 39,80 63,133c25,52 63,120 85,149c28,38 42,67 46,99c9,74 18,94 55,119c32,22 42,23 115,17c90,-7 95,-5 149,83c14,23 33,42 42,42c12,0 14,-3 6,-13zm-1493,-182c6,-19 32,-51 56,-71c55,-45 77,-80 105,-168c28,-85 52,-109 258,-264c84,-63 151,-116 149,-119c-13,-12 -176,84 -236,140c-38,34 -88,80 -112,102c-24,22 -60,63 -79,90c-24,34 -50,57 -84,73c-26,13 -46,26 -43,29c11,10 68,-9 97,-34c24,-20 29,-21 23,-6c-13,37 -37,65 -78,93c-45,31 -69,71 -80,133c-9,47 7,49 24,2zm266,-231c13,-50 35,-110 49,-133c31,-49 18,-55 -17,-8c-37,49 -47,73 -57,135c-6,31 -23,84 -39,117c-29,58 -35,76 -32,103c3,32 76,-131 96,-214zm-74,59c5,-13 6,-29 3,-35c-5,-8 -33,50 -34,70c0,12 23,-15 31,-35zm1400,-35c-11,-25 -25,-49 -31,-53c-7,-4 -36,1 -66,11c-51,17 -55,17 -90,1c-55,-27 -52,-13 6,22c55,34 79,38 110,19c17,-11 24,-8 50,21c17,18 33,31 36,29c2,-3 -4,-26 -15,-50zm-956,19c-4,-13 3,-46 16,-78c19,-48 72,-358 63,-368c-8,-9 -15,9 -38,105c-14,54 -32,128 -41,164c-23,91 -29,154 -16,179c15,28 23,27 16,-2zm371,-29c-25,-44 -76,-159 -103,-235c-8,-22 -26,-52 -40,-65l-26,-23l7,58c11,101 36,154 111,237c39,42 72,76 73,74c2,-1 -8,-22 -22,-46z"/>
    <path id="svg_4" d="m238.01533,2887.30473c0,-2 18,-25 39,-51c46,-55 61,-89 61,-141c0,-48 -20,-76 -49,-68c-37,9 -12,-12 62,-53c125,-68 243,-173 314,-278c42,-61 63,-102 63,-122l0,-29l35,22c32,20 35,25 29,56c-3,19 -26,72 -51,119c-26,47 -57,110 -69,141c-18,43 -24,52 -30,38c-20,-53 -117,-38 -178,26c-55,58 -76,109 -76,189c0,80 -12,115 -42,127c-33,12 -108,29 -108,24zm457,-523c29,-57 50,-106 48,-109c-3,-2 -6,-2 -8,0c-2,2 -26,36 -54,74c-29,39 -61,79 -72,89c-26,23 -27,43 -3,49c30,8 36,2 89,-103z"/>
    <path id="svg_5" d="m659.01533,2870.30473c15,-32 6,-67 -25,-97l-24,-25l18,-54c11,-30 19,-63 20,-72c0,-44 17,-10 39,80c26,109 24,165 -9,182c-28,15 -31,13 -19,-14z"/>
    <path id="svg_6" d="m1506.01533,2804.30473c-9,-6 -26,-39 -38,-75c-13,-40 -35,-80 -56,-102c-31,-33 -34,-41 -34,-97l0,-61l25,30c49,59 65,93 81,171c9,43 24,94 35,112c19,33 16,38 -13,22z"/>
    <path id="svg_7" d="m1152.01533,2790.30473c-43,-19 -82,-74 -93,-128c-9,-52 -2,-113 34,-283c29,-139 31,-174 10,-201c-23,-30 -17,-37 11,-15c15,12 39,21 54,21c27,0 29,3 40,68c7,38 10,86 6,108c-3,21 -9,73 -12,114c-6,69 -9,78 -40,106c-29,27 -34,38 -34,77c0,54 13,94 42,125c25,25 24,26 -18,8zm26,-367c9,-65 10,-111 4,-140c-13,-60 -31,-61 -39,-2c-4,26 -18,96 -31,155c-13,59 -24,128 -24,153l0,47l39,-58c33,-51 40,-72 51,-155z"/>
    <path id="svg_8" d="m1708.01533,2534.30473c0,-40 -30,-79 -106,-134c-78,-57 -80,-64 -9,-45c46,13 67,29 106,83c29,39 39,99 19,111c-5,3 -10,-3 -10,-15z"/>
    <path id="svg_9" d="m1355.01533,2126.30473c-30,-32 -21,-42 38,-42c59,0 63,4 39,38c-18,27 -55,29 -77,4z"/>
    <path id="svg_10" d="m1758.01533,2177.30473c-1,-10 -7,-35 -14,-55l-14,-38l35,0c26,0 34,4 30,14c-3,8 -9,31 -13,50c-7,39 -24,59 -24,29z"/>
    <path id="svg_11" d="m391.01533,2053.30473c-26,-7 -33,-15 -33,-34c0,-31 33,-42 65,-21c16,10 25,26 25,41c0,27 -7,28 -57,14z"/>
    <path id="svg_12" d="m1177.01533,1717.30473c-11,-3 -18,-19 -22,-51c-2,-26 -8,-56 -12,-67c-8,-20 -8,-20 14,0c42,37 63,74 57,100c-6,25 -8,26 -37,18z"/>
   </g>
  </g>
 </g>

</svg>